<svg xmlns="http://www.w3.org/2000/svg" width="32" height="32" viewBox="0 0 32 32" fill="none">
  <circle cx="16" cy="16" r="16" fill="#FCFF52"/>
  <path d="M17.9733 15.851C18.7733 15.051 19.2267 13.9376 19.2267 12.7043C19.2267 10.0376 17.0667 7.8501 14.4267 7.8501C11.7867 7.8501 9.59999 10.0376 9.59999 12.7043C9.59999 13.9376 10.0533 15.051 10.8533 15.851C9.82666 16.851 9.19999 18.2643 9.19999 19.8376C9.19999 22.8776 11.64 25.351 14.6267 25.351C17.6133 25.351 20.0667 22.8776 20.0667 19.8376C20.0667 18.2643 19.44 16.851 17.9733 15.851Z" fill="#31A748"/>
  <path d="M16.9333 13.7842C16.9333 15.4175 15.6267 16.7509 14 16.7509C12.3733 16.7509 11.0667 15.4175 11.0667 13.7842C11.0667 12.1509 12.3733 10.8175 14 10.8175C15.6267 10.8175 16.9333 12.1509 16.9333 13.7842Z" fill="#FCFF52"/>
  <path d="M17.7333 19.6043C17.7333 21.6043 16.1067 23.2377 14.1333 23.2377C12.16 23.2377 10.5333 21.6043 10.5333 19.6043C10.5333 17.6043 12.16 15.9709 14.1333 15.9709C16.1067 15.9709 17.7333 17.6043 17.7333 19.6043Z" fill="#FCFF52"/>
</svg> 