<svg xmlns="http://www.w3.org/2000/svg" width="32" height="32" viewBox="0 0 32 32" fill="none">
  <path d="M16 32C24.8366 32 32 24.8366 32 16C32 7.16344 24.8366 0 16 0C7.16344 0 0 7.16344 0 16C0 24.8366 7.16344 32 16 32Z" fill="#8247E5"/>
  <path d="M21.0671 12.5977C20.5267 12.2856 19.8379 12.2856 19.2346 12.5977L16.9138 13.9733L15.3061 14.7894L13.0481 16.165C12.5078 16.4771 11.819 16.4771 11.2156 16.165L9.42135 15.1617C8.881 14.8496 8.505 14.2576 8.505 13.6028V11.6589C8.505 11.0042 8.881 10.4121 9.42135 10.1L11.1528 9.13859C11.6931 8.82648 12.3819 8.82648 12.9852 9.13859L14.7166 10.1C15.257 10.4121 15.633 11.0042 15.633 11.6589V13.0344L17.2407 12.1555V10.78C17.2407 10.1252 16.8647 9.53319 16.3243 9.22108L13.0481 7.30896C12.5078 6.99685 11.819 6.99685 11.2156 7.30896L7.87667 9.22108C7.33633 9.53319 6.96033 10.1252 6.96033 10.78V14.4816C6.96033 15.1364 7.33633 15.7284 7.87667 16.0405L11.2156 17.9526C11.756 18.2647 12.4448 18.2647 13.0481 17.9526L15.3061 16.6398L16.9138 15.7609L19.1719 14.4481C19.7122 14.136 20.401 14.136 21.0043 14.4481L22.7358 15.4095C23.2761 15.7216 23.6521 16.3137 23.6521 16.9684V18.9123C23.6521 19.5671 23.2761 20.1591 22.7358 20.4712L21.0043 21.4326C20.464 21.7447 19.7752 21.7447 19.1719 21.4326L17.4404 20.4712C16.9001 20.1591 16.5241 19.5671 16.5241 18.9123V17.5996L14.9165 18.4785V19.8168C14.9165 20.4716 15.2925 21.0636 15.8328 21.3757L19.1719 23.2878C19.7122 23.5999 20.401 23.5999 21.0043 23.2878L24.3433 21.3757C24.8836 21.0636 25.2596 20.4716 25.2596 19.8168V16.1152C25.2596 15.4605 24.8836 14.8685 24.3433 14.5564L21.0671 12.5977Z" fill="white"/>
</svg> 