<svg xmlns="http://www.w3.org/2000/svg" width="32" height="32" viewBox="0 0 32 32" fill="none">
  <circle cx="16" cy="16" r="16" fill="#6B7280"/>
  <path d="M16 10C14.9 10 14 10.9 14 12C14 13.1 14.9 14 16 14C17.1 14 18 13.1 18 12C18 10.9 17.1 10 16 10ZM16 22C18.2 22 20 20.2 20 18H12C12 20.2 13.8 22 16 22ZM16 4C9.4 4 4 9.4 4 16C4 22.6 9.4 28 16 28C22.6 28 28 22.6 28 16C28 9.4 22.6 4 16 4ZM16 26C10.5 26 6 21.5 6 16C6 10.5 10.5 6 16 6C21.5 6 26 10.5 26 16C26 21.5 21.5 26 16 26Z" fill="white"/>
</svg> 